<svg width="33" height="33" viewBox="0 0 33 33" fill="none" xmlns="http://www.w3.org/2000/svg">
<path d="M31.7103 0.553223H2.25117C1.54271 0.553223 0.970337 1.12559 0.970337 1.83405V31.2932C0.970337 32.0016 1.54271 32.574 2.25117 32.574H31.7103C32.4187 32.574 32.9911 32.0016 32.9911 31.2932V1.83405C32.9911 1.12559 32.4187 0.553223 31.7103 0.553223ZM28.0119 9.89929H25.4542C23.4489 9.89929 23.0607 10.8519 23.0607 12.2528V15.3388H27.8478L27.2234 20.17H23.0607V32.574H18.0694V20.174H13.8947V15.3388H18.0694V11.7765C18.0694 7.64182 20.5951 5.38836 24.2855 5.38836C26.0546 5.38836 27.5716 5.52045 28.0159 5.58048V9.89929H28.0119Z" fill="white"/>
</svg>
