<svg width="33" height="33" viewBox="0 0 33 33" fill="none" xmlns="http://www.w3.org/2000/svg">
<path d="M31.6981 0.553223H2.23896C1.5305 0.553223 0.95813 1.12559 0.95813 1.83405V31.2932C0.95813 32.0016 1.5305 32.574 2.23896 32.574H31.6981C32.4065 32.574 32.9789 32.0016 32.9789 31.2932V1.83405C32.9789 1.12559 32.4065 0.553223 31.6981 0.553223ZM10.4563 27.8389H5.70521V12.557H10.4563V27.8389ZM8.08275 10.4677C7.53811 10.4677 7.00569 10.3061 6.55283 10.0036C6.09997 9.70097 5.74701 9.27089 5.53859 8.7677C5.33016 8.26451 5.27562 7.71081 5.38188 7.17663C5.48813 6.64245 5.75041 6.15177 6.13553 5.76665C6.52066 5.38152 7.01133 5.11925 7.54552 5.013C8.0797 4.90674 8.63339 4.96127 9.13658 5.1697C9.63977 5.37813 10.0699 5.73109 10.3724 6.18395C10.675 6.63681 10.8365 7.16922 10.8365 7.71387C10.8325 9.23486 9.59974 10.4677 8.08275 10.4677ZM28.2438 27.8389H23.4968V20.4061C23.4968 18.633 23.4647 16.3555 21.0272 16.3555C18.5576 16.3555 18.1773 18.2847 18.1773 20.278V27.8389H13.4342V12.557H17.9892V14.6464H18.0532C18.6856 13.4456 20.2346 12.1768 22.5481 12.1768C27.3593 12.1768 28.2438 15.3428 28.2438 19.4575V27.8389Z" fill="white"/>
</svg>
