<svg width="31" height="40" viewBox="0 0 31 40" fill="none" xmlns="http://www.w3.org/2000/svg">
<path d="M15.5 23.9036C19.7282 23.9036 23.1667 20.4651 23.1667 16.237C23.1667 12.0088 19.7282 8.57031 15.5 8.57031C11.2719 8.57031 7.83337 12.0088 7.83337 16.237C7.83337 20.4651 11.2719 23.9036 15.5 23.9036ZM15.5 12.4036C17.6141 12.4036 19.3334 14.1229 19.3334 16.237C19.3334 18.3511 17.6141 20.0703 15.5 20.0703C13.386 20.0703 11.6667 18.3511 11.6667 16.237C11.6667 14.1229 13.386 12.4036 15.5 12.4036Z" fill="white"/>
<path d="M14.3885 38.8806C14.7129 39.1123 15.1015 39.2368 15.5001 39.2368C15.8987 39.2368 16.2874 39.1123 16.6118 38.8806C17.1945 38.4686 30.889 28.5805 30.8335 16.2371C30.8335 7.78273 23.9545 0.903809 15.5001 0.903809C7.04571 0.903809 0.166795 7.78273 0.166795 16.2276C0.111211 28.5805 13.8058 38.4686 14.3885 38.8806ZM15.5001 4.73714C21.8424 4.73714 27.0001 9.89489 27.0001 16.2467C27.0404 24.7529 18.5898 32.3908 15.5001 34.8959C12.4124 32.3889 3.95988 24.7491 4.00013 16.2371C4.00013 9.89489 9.15788 4.73714 15.5001 4.73714Z" fill="white"/>
</svg>
