<svg width="34" height="28" viewBox="0 0 34 28" fill="none" xmlns="http://www.w3.org/2000/svg">
<path d="M33.645 3.24877C32.4202 3.77711 31.0873 4.15736 29.7144 4.30546C31.1398 3.45865 32.2072 2.12084 32.7164 0.543014C31.3788 1.33869 29.9136 1.89663 28.3855 2.19208C27.7469 1.50935 26.9745 0.965448 26.1165 0.594277C25.2585 0.223107 24.3332 0.0326195 23.3983 0.0346846C19.6159 0.0346846 16.5739 3.10067 16.5739 6.86312C16.5739 7.39146 16.6379 7.9198 16.742 8.42813C11.0783 8.13194 6.02705 5.42618 2.66887 1.28349C2.05697 2.32863 1.73632 3.51865 1.74026 4.72973C1.74026 7.09927 2.94505 9.18862 4.78224 10.4174C3.69955 10.3748 2.64222 10.0772 1.69624 9.54886V9.63291C1.69624 12.9511 4.04176 15.7009 7.16779 16.3333C6.58084 16.4857 5.97704 16.5637 5.37062 16.5654C4.92633 16.5654 4.50606 16.5214 4.08178 16.4613C4.94634 19.1671 7.46398 21.1324 10.4619 21.1964C8.1164 23.0336 5.17849 24.1143 1.98843 24.1143C1.41605 24.1143 0.887711 24.0943 0.339355 24.0303C3.36532 25.9715 6.95565 27.0922 10.8222 27.0922C23.3743 27.0922 30.2428 16.6935 30.2428 7.66764C30.2428 7.37145 30.2428 7.07525 30.2227 6.77906C31.5516 5.80643 32.7164 4.60165 33.645 3.24877Z" fill="white"/>
</svg>
